<svg xmlns="http://www.w3.org/2000/svg" viewBox="0 0 640 480">
    <rect width="640" height="480" fill="#fff8e9"/>
    <rect x="160" y="220" width="320" height="150" rx="30" fill="#ffc6d9"/>
    <rect x="190" y="180" width="260" height="60" rx="24" fill="#ffffff"/>
    <rect x="228" y="132" width="18" height="48" rx="9" fill="#7e7ef9"/>
    <rect x="312" y="132" width="18" height="48" rx="9" fill="#ff7eb9"/>
    <rect x="396" y="132" width="18" height="48" rx="9" fill="#ffb57e"/>
    <path d="M237 116c0-16 22-16 22 0 0 12-11 18-11 28 0-10-11-16-11-28z" fill="#ffd27d"/>
    <path d="M321 116c0-16 22-16 22 0 0 12-11 18-11 28 0-10-11-16-11-28z" fill="#ffd27d"/>
    <path d="M405 116c0-16 22-16 22 0 0 12-11 18-11 28 0-10-11-16-11-28z" fill="#ffd27d"/>
</svg>
