<svg xmlns="http://www.w3.org/2000/svg" viewBox="0 0 64 64" shape-rendering="crispEdges">
    <defs>
        <linearGradient id="sky" x1="0%" y1="0%" x2="0%" y2="100%">
            <stop offset="0%" stop-color="#a9dcff"/>
            <stop offset="100%" stop-color="#fef0d8"/>
        </linearGradient>
        <linearGradient id="field" x1="0%" y1="0%" x2="100%" y2="0%">
            <stop offset="0%" stop-color="#88c76f"/>
            <stop offset="100%" stop-color="#5fa65b"/>
        </linearGradient>
    </defs>

    <rect x="4" y="4" width="56" height="56" rx="10" fill="#fff7ef"/>
    <rect x="8" y="8" width="48" height="48" rx="8" fill="#3f2e3a"/>
    <rect x="10" y="10" width="44" height="28" rx="5" fill="url(#sky)"/>
    <rect x="10" y="38" width="44" height="16" rx="0" fill="url(#field)"/>

    <rect x="43" y="14" width="6" height="6" fill="#ffd774"/>
    <rect x="45" y="12" width="2" height="2" fill="#fff2b8"/>

    <rect x="28" y="24" width="2" height="18" fill="#5e8a3d"/>
    <rect x="24" y="38" width="4" height="2" fill="#6cae50"/>
    <rect x="30" y="38" width="4" height="2" fill="#6cae50"/>
    <rect x="22" y="36" width="2" height="2" fill="#6cae50"/>
    <rect x="34" y="36" width="2" height="2" fill="#6cae50"/>

    <rect x="20" y="18" width="4" height="4" fill="#ffb3d1"/>
    <rect x="24" y="16" width="6" height="4" fill="#ffb3d1"/>
    <rect x="30" y="18" width="4" height="4" fill="#ffb3d1"/>
    <rect x="18" y="22" width="6" height="6" fill="#ff8fbc"/>
    <rect x="24" y="20" width="6" height="8" fill="#ff7eb9"/>
    <rect x="30" y="22" width="6" height="6" fill="#ff8fbc"/>
    <rect x="20" y="28" width="4" height="4" fill="#ff7eb9"/>
    <rect x="24" y="28" width="6" height="6" fill="#ff5ea8"/>
    <rect x="30" y="28" width="4" height="4" fill="#ff7eb9"/>
    <rect x="24" y="34" width="6" height="4" fill="#ff4d96"/>

    <rect x="17" y="17" width="1" height="1" fill="#ffffff" opacity="0.75"/>
    <rect x="26" y="13" width="2" height="1" fill="#ffffff" opacity="0.8"/>
    <rect x="32" y="20" width="1" height="1" fill="#ffe2ef"/>
    <rect x="23" y="27" width="1" height="1" fill="#ffe2ef"/>

    <rect x="8" y="8" width="48" height="2" rx="1" fill="#fffdf8" opacity="0.35"/>
    <rect x="8" y="54" width="48" height="2" rx="1" fill="#241a22" opacity="0.35"/>
</svg>
